<?xml version="1.0" encoding="UTF-8"?>
<svg version="1.1" xmlns="http://www.w3.org/2000/svg" width="64" height="64">
<path d="M0 0 C0.62132812 0.391875 1.24265625 0.78375 1.8828125 1.1875 C2.50414062 1.538125 3.12546875 1.88875 3.765625 2.25 C10.62521869 6.52611035 14.82446272 13.4804369 16.8828125 21.1875 C17.67485162 30.07491567 17.78212394 38.41951278 12.8828125 46.1875 C12.5321875 46.80882812 12.1815625 47.43015625 11.8203125 48.0703125 C7.54420215 54.92990619 0.5898756 59.12915022 -7.1171875 61.1875 C-16.00460317 61.97953912 -24.34920028 62.08681144 -32.1171875 57.1875 C-33.04917969 56.6615625 -33.04917969 56.6615625 -34 56.125 C-40.85959369 51.84888965 -45.05883772 44.8945631 -47.1171875 37.1875 C-47.90922662 28.30008433 -48.01649894 19.95548722 -43.1171875 12.1875 C-42.7665625 11.56617188 -42.4159375 10.94484375 -42.0546875 10.3046875 C-33.73233229 -3.04575731 -13.65305461 -7.47543675 0 0 Z " fill="#01C9C6" transform="translate(47.1171875,2.8125)"/>
<path d="M0 0 C3.23551706 2.11011982 4.85394116 3.78091174 7 7 C7.64497577 13.4497577 6.57369533 16.639457 3 22 C3.70125 22.185625 4.4025 22.37125 5.125 22.5625 C9.91468029 24.95734014 12.91432641 28.92735041 15.375 33.625 C16.04736106 36.17997202 16.15033276 38.36917676 16 41 C14.68 41 13.36 41 12 41 C11.82984375 40.40832031 11.6596875 39.81664062 11.484375 39.20703125 C10.01513166 34.41636014 8.68085963 30.57259905 5 27 C-0.2721703 24.45822113 -5.24905539 24.33187555 -11 25 C-16.46700501 27.48500228 -18.47968196 30.7726737 -21 36 C-21.76040572 38.26985894 -21.76040572 38.26985894 -22 40 C-22.99 40 -23.98 40 -25 40 C-25.60637975 35.14896201 -25.18289173 32.72930033 -22.25 28.75 C-20.09783391 26.03261858 -17.90177148 23.91092268 -15 22 C-14.34 22 -13.68 22 -13 22 C-13.66 21.01 -14.32 20.02 -15 19 C-17.42744843 14.69323665 -17.70173721 11.91216049 -17 7 C-15.27919403 3.91887311 -12.95087484 1.75414212 -10.1875 -0.4375 C-6.68371196 -1.33847407 -3.43429838 -0.95586834 0 0 Z " fill="#EBFAFA" transform="translate(37,10)"/>
<path d="M0 0 C2.61904157 0.53863308 3.76638607 0.97425118 5.875 2.6875 C7.28719248 6.04145713 7.32519252 8.46095988 6.875 12.0625 C5.375 14.5 5.375 14.5 2.875 16.0625 C-1.17060357 16.86664661 -4.10373756 16.70078902 -7.625 14.5 C-9.73506839 11.07113886 -9.74991523 9.02029649 -9.125 5.0625 C-6.52894849 1.16842273 -4.6393185 -0.35094476 0 0 Z " fill="#05C9C7" transform="translate(33.125,12.9375)"/>
</svg>